<svg width="35" height="35" viewBox="0 0 35 35" fill="none" xmlns="http://www.w3.org/2000/svg">
<g clip-path="url(#clip0_38_63)">
<path fill-rule="evenodd" clip-rule="evenodd" d="M32.9412 23.1526C31.6894 24.0358 29.5009 25.2773 26.6721 26.0432C26.3282 24.1738 24.9818 22.6276 23.0979 22.049C21.4262 21.5343 19.7235 21.1679 18.0023 20.9249C19.3138 19.8173 20.2197 18.267 20.4812 16.4923C20.8806 16.4779 21.2985 16.4696 21.7762 16.4696C24.8026 16.4861 27.8126 16.9493 30.7259 17.8449C32.0497 18.2526 32.9412 19.4446 32.9412 20.8137V23.1526ZM24.7059 29.329C22.6244 30.8011 18.6859 32.9402 13.3824 32.9402C11.023 32.9402 6.47088 32.4626 2.05882 29.329V26.982C2.05882 25.6149 2.95236 24.4208 4.27822 24.0132C7.23882 23.1073 10.3003 22.6482 13.3824 22.6482H13.5368C16.5735 22.6626 19.5856 23.1238 22.4947 24.0173C23.8165 24.4229 24.7059 25.6149 24.7059 26.982V29.329H24.7059ZM8.23528 15.4402V13.3814C8.23528 10.5443 10.5432 8.23434 13.3824 8.23434C16.2215 8.23434 18.5294 10.5443 18.5294 13.3814V15.4402C18.5294 18.2793 16.2215 20.5873 13.3824 20.5873C10.5432 20.5873 8.2353 18.2793 8.2353 15.4402H8.23528ZM21.6176 2.05786C22.9888 2.05786 24.2818 2.59522 25.2556 3.56904C26.2274 4.54286 26.7647 5.83374 26.7647 7.20492V9.26374C26.7647 12.1029 24.4568 14.4108 21.6176 14.4108C21.2594 14.4108 20.9176 14.3634 20.5882 14.2934V13.3814C20.5882 10.5299 18.9103 8.08198 16.5015 6.91462C16.6538 4.2155 18.8794 2.05786 21.6176 2.05786ZM31.3312 15.8767C29.6656 15.3661 27.9671 14.9976 26.2315 14.7526C27.8024 13.4308 28.8235 11.4749 28.8235 9.26376V7.2049C28.8235 5.28402 28.0741 3.4743 26.7112 2.11342C25.3482 0.750484 23.5406 -0.000976562 21.6176 -0.000976562C17.9591 -0.000976562 14.9615 2.75166 14.5044 6.29078C14.1359 6.23108 13.7674 6.17548 13.3824 6.17548C9.40882 6.17548 6.17648 9.40989 6.17648 13.3814V15.4402C6.17648 17.6514 7.19764 19.6073 8.77058 20.9311C7.05148 21.172 5.34058 21.5343 3.675 22.0449C1.47824 22.7202 0 24.7049 0 26.982V30.3667L0.41176 30.6755C5.42912 34.437 10.6894 34.9991 13.3824 34.9991C19.6576 34.9991 24.2035 32.2897 26.353 30.6755L26.7647 30.3667V28.1699C30.5056 27.2476 33.2479 25.5079 34.5882 24.4991L35 24.1902V20.8137C35 18.5346 33.5238 16.5499 31.3312 15.8767Z" fill="#5A189A"/>
</g>
<defs>
<clipPath id="clip0_38_63">
<rect width="35" height="35" fill="white"/>
</clipPath>
</defs>
</svg>
