<svg width="35" height="35" viewBox="0 0 35 35" fill="none" xmlns="http://www.w3.org/2000/svg">
<path d="M6.64453 28.1367C6.31641 28.1367 6.04297 27.918 5.96094 27.5898L2.46094 12.5234H2.05078C1.14844 12.4961 0.4375 11.7578 0.4375 10.8555C0.4375 9.95313 1.17578 9.21484 2.10547 9.21484C3.00781 9.21484 3.77344 9.95312 3.77344 10.8828C3.77344 11.1016 3.71875 11.3477 3.63672 11.5664L3.39062 12.0312L10.8281 15.3672L16.9531 5.87891L16.543 5.57812C16.1055 5.27734 15.832 4.75781 15.832 4.21094C15.832 3.30859 16.5703 2.54297 17.5 2.54297C18.4297 2.54297 19.168 3.28125 19.168 4.21094C19.168 4.75781 18.8945 5.27734 18.457 5.57812L18.0469 5.85156L23.5156 15.3672L31.6094 12.0039L31.3906 11.5117C31.3086 11.293 31.2539 11.0742 31.2539 10.8555C31.2539 9.95313 31.9922 9.1875 32.9219 9.1875C33.8242 9.1875 34.5898 9.92578 34.5898 10.8555C34.5898 11.7578 33.8516 12.5234 32.9219 12.5234H32.457L28.957 27.6172C28.875 27.9453 28.6016 28.1641 28.2734 28.1641H6.64453V28.1367ZM7.19141 26.7695H27.7539L30.7617 13.8633L23.5156 16.8711C23.4336 16.8984 23.3516 16.9258 23.2422 16.9258C22.9961 16.9258 22.7773 16.7891 22.6406 16.5977L17.4453 7.65625L11.6484 16.5977C11.5117 16.7891 11.293 16.9258 11.0742 16.9258C10.9648 16.9258 10.8828 16.8984 10.8008 16.8711L4.21094 13.918L7.19141 26.7695ZM5.52344 31.9922C5.05859 31.9922 4.70312 31.6367 4.70312 31.1719C4.70312 30.707 5.05859 30.3516 5.52344 30.3516H29.4219C29.8867 30.3516 30.2422 30.707 30.2422 31.1719C30.2422 31.6367 29.8867 31.9922 29.4219 31.9922H5.52344Z" fill="#5A189A"/>
</svg>
